<svg width="68" height="68" viewBox="0 0 68 68" fill="none" xmlns="http://www.w3.org/2000/svg">
<rect width="68" height="68" rx="34" fill="#FDEAEA"/>
<path d="M34 22.0834C30.8155 19.2331 26.6101 17.5 22 17.5C19.8962 17.5 17.8767 17.8609 16 18.5242V47.0242C17.8767 46.3609 19.8962 46 22 46C26.6101 46 30.8155 47.7331 34 50.5834M34 22.0834C37.1845 19.2331 41.3899 17.5 46 17.5C48.1038 17.5 50.1233 17.8609 52 18.5242V47.0242C50.1233 46.3609 48.1038 46 46 46C41.3899 46 37.1845 47.7331 34 50.5834M34 22.0834V50.5834" stroke="#E04E4E" stroke-width="1.5" stroke-linecap="round" stroke-linejoin="round"/>
</svg>
