<svg width="30" height="28" viewBox="0 0 30 28" fill="none" xmlns="http://www.w3.org/2000/svg">
<path fill-rule="evenodd" clip-rule="evenodd" d="M6.56338 6.17496C7.04763 5.71935 7.83275 5.71935 8.317 6.17496L23.1969 20.175C23.6812 20.6306 23.6812 21.3693 23.1969 21.8249C22.7127 22.2805 21.9276 22.2805 21.4433 21.8249L6.56338 7.82488C6.07913 7.36926 6.07913 6.63057 6.56338 6.17496Z" fill="black"/>
<path fill-rule="evenodd" clip-rule="evenodd" d="M23.1969 6.17496C22.7126 5.71935 21.9275 5.71935 21.4433 6.17496L6.56332 20.175C6.07907 20.6306 6.07907 21.3693 6.56332 21.8249C7.04757 22.2805 7.83269 22.2805 8.31694 21.8249L23.1969 7.82488C23.6811 7.36926 23.6811 6.63057 23.1969 6.17496Z" fill="black"/>
</svg>
