<svg width="68" height="68" viewBox="0 0 68 68" fill="none" xmlns="http://www.w3.org/2000/svg">
<rect width="68" height="68" rx="34" fill="#FDEAEA"/>
<path d="M32.9615 16.9974C33.3458 16.0735 34.6546 16.0735 35.0389 16.9974L39.2909 27.2203C39.4529 27.6098 39.8192 27.876 40.2397 27.9097L51.2762 28.7945C52.2737 28.8744 52.6782 30.1193 51.9182 30.7703L43.5095 37.9732C43.1892 38.2476 43.0492 38.6782 43.1471 39.0886L45.7161 49.8583C45.9483 50.8317 44.8894 51.6011 44.0354 51.0794L34.5866 45.3082C34.2266 45.0883 33.7738 45.0883 33.4138 45.3082L23.965 51.0794C23.111 51.6011 22.0521 50.8317 22.2843 49.8583L24.8533 39.0886C24.9512 38.6782 24.8112 38.2476 24.4909 37.9732L16.0822 30.7703C15.3222 30.1193 15.7267 28.8744 16.7242 28.7945L27.7607 27.9097C28.1812 27.876 28.5475 27.6098 28.7095 27.2203L32.9615 16.9974Z" stroke="#E04E4E" stroke-width="2" stroke-linecap="round" stroke-linejoin="round"/>
</svg>
