<svg width="24" height="24" viewBox="0 0 24 24" fill="none" xmlns="http://www.w3.org/2000/svg">
<path d="M11.542 0.111757C11.8303 -0.0372523 12.1698 -0.0372523 12.4581 0.111757C16.4874 2.19435 20.2387 4.7643 23.6394 7.74653C23.922 7.99434 24.0525 8.38058 23.9805 8.756C23.9085 9.13141 23.6452 9.43719 23.2924 9.55517C19.4543 10.8388 15.8523 12.6651 12.5716 14.9467C12.2261 15.187 11.7739 15.187 11.4284 14.9467C10.5071 14.306 9.56046 13.7012 8.59039 13.1342V11.4776C8.59039 11.1348 8.74825 10.8263 9.00182 10.6449C10.4494 9.60946 11.9542 8.65345 13.5103 7.78293C14.007 7.5051 14.1913 6.86437 13.9221 6.35182C13.6529 5.83928 13.0321 5.649 12.5354 5.92683C10.9134 6.83422 9.34499 7.83063 7.83644 8.90969C7.01219 9.49928 6.54463 10.4669 6.54463 11.4776V12.0128C4.67224 11.0524 2.72246 10.229 0.707566 9.55517C0.354798 9.43719 0.0915321 9.13141 0.0195056 8.756C-0.052521 8.38058 0.0779737 7.99434 0.360561 7.74653C3.76132 4.7643 7.51261 2.19435 11.542 0.111757Z" fill="white"/>
<path d="M6.54463 14.3852C5.45643 13.7915 4.3393 13.247 3.19601 12.7546C2.9661 14.1982 2.7881 15.6598 2.66405 17.1373C2.62748 17.5728 2.85483 17.9866 3.23578 18.1777C3.9558 18.5391 4.66248 18.9244 5.35484 19.3327C5.07019 19.7886 4.73445 20.2204 4.34762 20.6196C3.94816 21.0318 3.94816 21.7002 4.34762 22.1125C4.74708 22.5247 5.39473 22.5247 5.79419 22.1125C6.29833 21.5922 6.73432 21.028 7.10214 20.4319C8.58827 21.4275 9.99918 22.5328 11.3241 23.7367C11.7105 24.0878 12.2896 24.0878 12.676 23.7367C15.1052 21.5294 17.8234 19.6536 20.7643 18.1777C21.1453 17.9866 21.3726 17.5728 21.336 17.1373C21.212 15.6598 21.034 14.1982 20.8041 12.7546C18.3066 13.8302 15.9338 15.1543 13.7149 16.6975C12.6783 17.4184 11.3217 17.4184 10.2851 16.6975C9.7268 16.3092 9.15872 15.9348 8.58138 15.5747C8.51018 17.2689 8.01703 18.9492 7.10214 20.4319C6.53063 20.0491 5.94799 19.6824 5.35484 19.3327C6.14809 18.0622 6.54462 16.6049 6.54463 15.1457V14.3852Z" fill="white"/>
</svg>
