<svg width="85" height="85" viewBox="0 0 85 85" fill="none" xmlns="http://www.w3.org/2000/svg">
<path d="M63.7496 66.297C64.6262 66.3693 65.5129 66.4062 66.4081 66.4062C70.121 66.4062 73.6856 65.7714 76.9993 64.6044C77.0217 64.3226 77.0331 64.0376 77.0331 63.75C77.0331 57.882 72.2761 53.125 66.4081 53.125C64.1853 53.125 62.1219 53.8076 60.4161 54.9746M63.7496 66.297C63.7498 66.3334 63.7498 66.3698 63.7498 66.4062C63.7498 67.2031 63.706 67.9897 63.6205 68.7637C57.3987 72.3338 50.1876 74.375 42.4998 74.375C34.8121 74.375 27.601 72.3338 21.3791 68.7637C21.2937 67.9897 21.2498 67.2031 21.2498 66.4062C21.2498 66.3699 21.2499 66.3336 21.2501 66.2973M63.7496 66.297C63.7286 62.13 62.5083 58.2467 60.4161 54.9746M60.4161 54.9746C56.6411 49.0704 50.0275 45.1562 42.4998 45.1562C34.9731 45.1562 28.3603 49.0695 24.585 54.9724M24.585 54.9724C22.8798 53.8067 20.8176 53.125 18.5962 53.125C12.7282 53.125 7.97119 57.882 7.97119 63.75C7.97119 64.0376 7.98262 64.3226 8.00505 64.6044C11.3188 65.7714 14.8833 66.4062 18.5962 66.4062C19.4899 66.4062 20.375 66.3695 21.2501 66.2973M24.585 54.9724C22.4919 58.2451 21.271 62.1293 21.2501 66.2973M53.1248 23.9062C53.1248 29.7743 48.3679 34.5312 42.4998 34.5312C36.6318 34.5312 31.8748 29.7743 31.8748 23.9062C31.8748 18.0382 36.6318 13.2812 42.4998 13.2812C48.3679 13.2812 53.1248 18.0382 53.1248 23.9062ZM74.3748 34.5312C74.3748 38.9323 70.8071 42.5 66.4061 42.5C62.0051 42.5 58.4373 38.9323 58.4373 34.5312C58.4373 30.1302 62.0051 26.5625 66.4061 26.5625C70.8071 26.5625 74.3748 30.1302 74.3748 34.5312ZM26.5623 34.5312C26.5623 38.9323 22.9946 42.5 18.5936 42.5C14.1926 42.5 10.6248 38.9323 10.6248 34.5312C10.6248 30.1302 14.1926 26.5625 18.5936 26.5625C22.9946 26.5625 26.5623 30.1302 26.5623 34.5312Z" stroke="#E04E4E" stroke-width="2" stroke-linecap="round" stroke-linejoin="round"/>
</svg>
